<svg width="511" height="511" viewBox="0 0 511 511" fill="none" xmlns="http://www.w3.org/2000/svg">
<g clip-path="url(#clip0)">
<path d="M111.255 196.998C113.11 195.142 114.179 192.565 114.179 189.941C114.179 187.306 113.11 184.74 111.255 182.885C109.387 181.017 106.822 179.961 104.198 179.961C101.563 179.961 98.9974 181.017 97.1299 182.885C95.2742 184.74 94.2059 187.306 94.2059 189.941C94.2059 192.565 95.2742 195.142 97.1299 196.998C98.9974 198.853 101.563 199.922 104.198 199.922C106.822 199.922 109.387 198.853 111.255 196.998Z" fill="#0C65BC"/>
<path d="M471.492 130.655C503.016 99.1304 517.457 54.0545 510.119 10.0779C509.418 5.87522 506.123 2.58088 501.917 1.87913C457.944 -5.46199 412.868 8.97853 381.344 40.5028L310.712 111.134L278.673 108.082C279.613 105.111 280.108 101.984 280.108 98.7834C280.108 90.5924 276.919 82.8926 271.13 77.1032C265.336 71.3137 257.636 68.1207 249.449 68.1207C241.258 68.1207 233.559 71.3098 227.769 77.1032L203.921 100.947L172.276 97.9296C175.781 87.2786 173.313 75.0759 164.861 66.6237C152.904 54.6705 133.457 54.6705 121.5 66.6237L97.3404 90.7835L56.4321 86.8809C53.4653 86.6002 50.5296 87.6529 48.4244 89.7581L3.92152 134.261C1.67201 136.51 0.631075 139.692 1.11451 142.834C1.59404 145.976 3.54335 148.698 6.36206 150.167L64.1787 180.323C65.6524 181.091 67.2313 181.458 68.7869 181.458C72.3853 181.458 75.8629 179.501 77.6446 176.089C80.1943 171.204 78.2995 165.173 73.4107 162.623L27.6525 138.76L59.2158 107.197L292.408 129.442L195.531 226.319L144.206 199.551C139.321 197.002 133.294 198.896 130.744 203.785C128.194 208.674 130.089 214.701 134.978 217.251L180.732 241.115L165.06 256.791C149.45 272.401 135.781 289.485 124.171 307.762L37.364 309.364C34.7831 309.411 32.3191 310.459 30.4907 312.284L7.28603 335.489C4.84549 337.929 3.83965 341.457 4.62717 344.822C5.41469 348.183 7.88642 350.9 11.1574 352.003L91.3093 379.032C87.36 391.867 84.2644 405.036 82.05 418.479C81.5276 421.652 82.5685 424.88 84.8414 427.157C86.7284 429.044 89.2742 430.081 91.898 430.081C92.436 430.081 92.9779 430.038 93.5198 429.949C106.962 427.734 120.132 424.635 132.966 420.689L159.995 500.841C161.099 504.112 163.812 506.58 167.177 507.367C167.929 507.547 168.693 507.633 169.449 507.633C172.065 507.633 174.615 506.603 176.51 504.709L199.711 481.508C201.539 479.679 202.588 477.208 202.631 474.623L204.143 387.882C222.459 376.261 239.57 362.572 255.204 346.939L270.88 331.266L361.827 505.633C363.297 508.451 366.022 510.401 369.161 510.884C369.667 510.962 370.174 511.001 370.677 511.001C373.305 511.001 375.847 509.96 377.734 508.077L422.24 463.57C424.342 461.465 425.398 458.529 425.118 455.566L421.215 414.654L445.375 390.494C457.328 378.541 457.328 359.091 445.375 347.134C436.919 338.682 424.716 336.214 414.065 339.719L411.047 308.074L434.895 284.226C440.685 278.436 443.874 270.736 443.874 262.549C443.874 254.358 440.689 246.658 434.895 240.869C429.106 235.076 421.406 231.886 413.215 231.886C410.014 231.886 406.888 232.382 403.917 233.325L400.86 201.286L471.492 130.655ZM241.886 91.2162C243.905 89.1967 246.592 88.0856 249.449 88.0856C252.307 88.0856 254.993 89.1967 257.013 91.2201C259.036 93.2396 260.147 95.9257 260.147 98.7834C260.147 101.501 259.13 104.058 257.293 106.043L229.695 103.407L241.886 91.2162ZM135.617 80.7406C139.789 76.5691 146.576 76.5691 150.748 80.7406C154.915 84.9082 154.915 91.6957 150.748 95.8673L150.736 95.879L123.114 93.2435L135.617 80.7406ZM32.7792 338.229L41.7577 329.247L112.452 327.945C106.939 338.37 102.058 349.122 97.8278 360.163L32.7792 338.229ZM182.744 470.245L173.769 479.219L151.832 414.171C162.845 409.952 173.574 405.083 183.98 399.586L182.744 470.245ZM241.091 332.826C225.403 348.514 208.12 362.101 189.562 373.45C189.262 373.609 188.97 373.789 188.685 373.98C162.795 389.676 134.44 401.013 104.455 407.543C115.746 355.676 141.399 308.682 179.173 270.908L395.461 54.6198C417.804 32.2728 448.104 19.961 479.234 19.961C483.285 19.961 487.348 20.1676 491.406 20.5886C495.071 55.879 482.63 91.2864 457.379 116.538L266.436 307.481C266.412 307.504 266.389 307.528 266.365 307.551L241.091 332.826ZM416.131 361.251C420.303 357.079 427.086 357.083 431.258 361.251C435.43 365.422 435.43 372.21 431.258 376.381L418.755 388.884L416.12 361.262L416.131 361.251ZM413.215 251.851C416.073 251.851 418.759 252.962 420.782 254.986C422.802 257.005 423.913 259.692 423.913 262.549C423.913 265.407 422.802 268.093 420.778 270.113L408.587 282.304L405.956 254.705C407.94 252.869 410.498 251.851 413.215 251.851V251.851ZM404.798 452.783L373.235 484.346L285.675 316.467L382.556 219.59L404.798 452.783Z" fill="#0C65BC"/>
<path d="M323.243 202.869C327.141 198.974 327.141 192.655 323.243 188.756C319.344 184.857 313.024 184.857 309.126 188.756L229.508 268.374C225.609 272.269 225.609 278.588 229.508 282.487C231.457 284.436 234.011 285.411 236.564 285.411C239.122 285.411 241.675 284.436 243.625 282.487L323.243 202.869Z" fill="#0C65BC"/>
<path d="M344.326 177.653C346.88 177.653 349.434 176.678 351.383 174.729L351.469 174.639C355.367 170.744 355.367 164.425 351.469 160.526C347.574 156.627 341.254 156.627 337.356 160.526L337.27 160.612C333.371 164.51 333.371 170.83 337.27 174.729C339.219 176.678 341.773 177.653 344.326 177.653Z" fill="#0C65BC"/>
</g>
<defs>
<clipPath id="clip0">
<rect width="511" height="511" fill="white"/>
</clipPath>
</defs>
</svg>
