<svg width="512" height="512" viewBox="0 0 512 512" fill="none" xmlns="http://www.w3.org/2000/svg">
<path d="M220.024 468.174C218.252 468.174 216.799 466.732 216.799 464.948C216.799 463.166 218.252 461.725 220.024 461.725H444.632C446.402 461.725 447.854 463.165 447.854 464.948C447.854 466.731 446.402 468.174 444.632 468.174H220.024ZM50.487 468.515C48.718 468.515 47.276 467.073 47.276 465.289C47.276 463.508 48.718 462.065 50.487 462.065H90.292C92.061 462.065 93.503 463.507 93.503 465.289C93.503 467.072 92.061 468.515 90.292 468.515H50.487ZM155.762 131.962V90.807H430.226C424.853 105.172 419.308 118.882 413.647 131.962H155.762ZM155.762 179.564V138.41H410.815C404.382 152.906 397.774 166.617 391.053 179.564H155.762ZM155.762 227.168V186.014H387.67C379.833 200.719 371.838 214.428 363.763 227.168H155.762ZM155.762 274.772V233.616H359.621C349.806 248.664 339.894 262.346 330.012 274.772H155.762ZM155.762 322.375V281.219H324.811C311.809 296.975 298.886 310.606 286.33 322.375H155.762ZM155.762 369.979V328.825H279.303C258.976 346.964 239.776 360.255 222.892 369.979H155.762ZM485.262 434.306V402.064H158.983C157.204 402.064 155.761 400.622 155.761 398.838V376.427H211.095C179.534 392.653 158.67 395.641 158.488 395.668C156.73 395.93 155.536 397.58 155.814 399.337C156.074 401.067 157.712 402.273 159.457 402.011C159.668 401.985 185.996 398.21 224.309 376.427H477.334C479.103 376.427 480.556 374.958 480.556 373.203C480.556 371.42 479.103 369.978 477.334 369.978H235.136C251.518 359.754 269.659 346.361 288.648 328.824H477.334C479.103 328.824 480.556 327.355 480.556 325.598C480.556 323.817 479.103 322.374 477.334 322.374H295.45C307.744 310.474 320.314 296.843 332.935 281.218H477.333C479.102 281.218 480.555 279.779 480.555 277.995C480.555 276.211 479.102 274.771 477.333 274.771H338.059C347.798 262.293 357.565 248.61 367.209 233.615H477.334C479.103 233.615 480.556 232.148 480.556 230.391C480.556 228.608 479.103 227.166 477.334 227.166H371.259C379.243 214.373 387.133 200.691 394.878 186.012H477.334C479.103 186.012 480.556 184.57 480.556 182.788C480.556 181.006 479.103 179.562 477.334 179.562H398.262C404.919 166.615 411.447 152.878 417.817 138.408H477.335C479.104 138.408 480.557 136.939 480.557 135.183C480.557 133.4 479.104 131.959 477.335 131.959H420.646C426.268 118.879 431.775 105.169 437.109 90.804H477.336C479.105 90.804 480.558 89.336 480.558 87.579C480.558 85.797 479.105 84.356 477.336 84.356H439.43C444.74 69.728 449.85 54.472 454.791 38.507L460.072 50.775C460.781 52.402 462.67 53.162 464.294 52.453C465.93 51.746 466.691 49.859 465.996 48.233C464.031 43.698 459.286 29.883 456.535 26.895C456.166 26.554 455.721 26.293 455.212 26.135C454.594 25.951 453.938 25.951 453.334 26.135C448.344 27.944 438.668 34.602 433.52 37.59C432 38.481 431.474 40.447 432.351 41.994C433.232 43.514 435.208 44.038 436.742 43.173L448.79 36.149C443.6 52.977 438.185 69.047 432.601 84.356H155.762V68.08H123.52V84.359H80.869C79.1 84.359 77.658 85.799 77.658 87.582C77.658 89.339 79.1 90.807 80.869 90.807H123.52V131.962H80.869C79.1 131.962 77.658 133.402 77.658 135.186C77.658 136.942 79.1 138.411 80.869 138.411H123.52V179.565H80.869C79.1 179.565 77.658 181.008 77.658 182.791C77.658 184.572 79.1 186.015 80.869 186.015H123.52V227.169H80.869C79.1 227.169 77.658 228.61 77.658 230.394C77.658 232.151 79.1 233.618 80.869 233.618H123.52V274.774H80.869C79.1 274.774 77.658 276.214 77.658 277.998C77.658 279.782 79.1 281.221 80.869 281.221H123.52V322.377H80.869C79.1 322.377 77.658 323.819 77.658 325.601C77.658 327.358 79.1 328.827 80.869 328.827H123.52V369.981H80.869C79.1 369.981 77.658 371.422 77.658 373.206C77.658 374.961 79.1 376.43 80.869 376.43H123.52V398.841C123.52 400.624 122.078 402.067 120.294 402.067H90.043V434.309H120.294C122.077 434.309 123.52 435.751 123.52 437.507V463.301H155.762V437.507C155.762 435.751 157.204 434.309 158.984 434.309H485.262V434.306ZM29.963 485.999C28.18 485.999 26.738 484.557 26.738 482.773C26.738 480.992 28.18 479.549 29.963 479.549H354.536C356.319 479.549 357.762 480.991 357.762 482.773C357.762 484.556 356.32 485.999 354.536 485.999H29.963Z" fill="white"/>
</svg>
