<svg width="512" height="512" viewBox="0 0 512 512" fill="none" xmlns="http://www.w3.org/2000/svg">
<path d="M280 104V56C280 53.8783 279.157 51.8434 277.657 50.3431C276.157 48.8429 274.122 48 272 48H96C93.8783 48 91.8434 48.8429 90.3431 50.3431C88.8429 51.8434 88 53.8783 88 56V104C88 106.122 88.8429 108.157 90.3431 109.657C91.8434 111.157 93.8783 112 96 112H272C274.122 112 276.157 111.157 277.657 109.657C279.157 108.157 280 106.122 280 104ZM264 96H104V64H264V96Z" fill="white"/>
<path d="M56 144V240C56 242.122 56.8429 244.157 58.3431 245.657C59.8434 247.157 61.8783 248 64 248H160C162.122 248 164.157 247.157 165.657 245.657C167.157 244.157 168 242.122 168 240V193.936L152 209.936V232H72V152H142.064L158.064 136H64C61.8783 136 59.8434 136.843 58.3431 138.343C56.8429 139.843 56 141.878 56 144Z" fill="white"/>
<path d="M178.344 138.344L120 196.688L101.656 178.344L90.344 189.656L114.344 213.656C115.844 215.156 117.879 215.998 120 215.998C122.121 215.998 124.156 215.156 125.656 213.656L189.656 149.656L178.344 138.344Z" fill="white"/>
<path d="M56 376C56 378.122 56.8429 380.157 58.3431 381.657C59.8434 383.157 61.8783 384 64 384H160C162.122 384 164.157 383.157 165.657 381.657C167.157 380.157 168 378.122 168 376V329.936L152 345.936V368H72V288H142.064L158.064 272H64C61.8783 272 59.8434 272.843 58.3431 274.343C56.8429 275.843 56 277.878 56 280V376Z" fill="white"/>
<path d="M101.656 314.344L90.344 325.656L114.344 349.656C115.844 351.156 117.879 351.998 120 351.998C122.121 351.998 124.156 351.156 125.656 349.656L189.656 285.656L178.344 274.344L120 332.688L101.656 314.344Z" fill="white"/>
<path d="M208 192H312V208H208V192Z" fill="white"/>
<path d="M208 152H312V168H208V152Z" fill="white"/>
<path d="M208 288H256V304H208V288Z" fill="white"/>
<path d="M208 328H256V344H208V328Z" fill="white"/>
<path d="M32 480V32H336V202.848C341.397 200.96 346.731 198.899 352 196.664V24C352 21.8783 351.157 19.8434 349.657 18.3431C348.157 16.8429 346.122 16 344 16H24C21.8783 16 19.8434 16.8429 18.3431 18.3431C16.8429 19.8434 16 21.8783 16 24V488C16 490.122 16.8429 492.157 18.3431 493.657C19.8434 495.157 21.8783 496 24 496H344C344.843 495.967 345.674 495.8 346.464 495.504C338.913 490.836 331.691 485.655 324.848 480H32Z" fill="white"/>
<path d="M488.872 232.048C453.494 228.213 419.175 217.653 387.76 200.936C386.603 200.32 385.311 199.997 384 199.997C382.689 199.997 381.397 200.32 380.24 200.936C348.825 217.653 314.506 228.213 279.128 232.048C277.169 232.263 275.358 233.193 274.043 234.661C272.728 236.128 272 238.029 272 240V334.76C272.221 369.307 282.689 403.012 302.078 431.605C321.468 460.199 348.907 482.396 380.92 495.384C381.896 495.791 382.943 496.001 384 496.001C385.057 496.001 386.104 495.791 387.08 495.384C419.093 482.396 446.532 460.199 465.922 431.605C485.311 403.012 495.779 369.307 496 334.76V240C496 238.029 495.272 236.128 493.957 234.661C492.642 233.193 490.831 232.263 488.872 232.048V232.048ZM480 334.76C479.786 365.577 470.591 395.664 453.54 421.335C436.489 447.006 412.323 467.149 384 479.296C355.677 467.149 331.511 447.006 314.46 421.335C297.409 395.664 288.214 365.577 288 334.76V247.08C321.484 242.633 353.956 232.469 384 217.032C414.044 232.47 446.516 242.634 480 247.08V334.76Z" fill="white"/>
<path d="M317.656 330.344L306.344 341.656L354.344 389.656C355.844 391.156 357.879 391.998 360 391.998C362.121 391.998 364.156 391.156 365.656 389.656L461.656 293.656L450.344 282.344L360 372.688L317.656 330.344Z" fill="white"/>
<path d="M200 440H256V456H200V440Z" fill="white"/>
<path d="M128 408H256V424H128V408Z" fill="white"/>
</svg>
