<svg width="400" height="400" viewBox="0 0 400 400" fill="none" xmlns="http://www.w3.org/2000/svg">
<g clip-path="url(#clip0)">
<path d="M286.831 156.24C288.172 159.404 286.701 163.077 283.537 164.418C280.372 165.759 276.7 164.288 275.359 161.124C273.64 157.087 271.517 153.194 269.057 149.547C266.569 145.862 263.731 142.438 260.645 139.338L260.631 139.351C257.492 136.213 254.068 133.375 250.421 130.926C246.75 128.439 242.882 126.317 238.897 124.624C235.733 123.296 234.249 119.637 235.576 116.473C236.904 113.309 240.564 111.824 243.728 113.152C248.597 115.223 253.194 117.723 257.413 120.575C261.788 123.518 265.838 126.864 269.483 130.51L269.47 130.523L269.483 130.536C273.169 134.221 276.515 138.271 279.405 142.568C282.274 146.825 284.774 151.409 286.831 156.24Z" fill="#FFFCFC"/>
<path d="M326.535 157.074C327.419 160.408 325.441 163.832 322.107 164.718C318.774 165.603 315.349 163.624 314.464 160.29C312.055 151.37 308.474 142.828 303.877 134.898C299.281 126.968 293.591 119.585 287.001 112.983C280.4 106.381 273.017 100.69 265.086 96.0938C257.168 91.4972 248.626 87.9163 239.694 85.5203C236.36 84.6352 234.38 81.2098 235.267 77.8764C236.151 74.5424 239.577 72.5639 242.91 73.449C252.885 76.1441 262.442 80.1555 271.323 85.2989C280.283 90.4945 288.538 96.8359 295.843 104.141C303.148 111.447 309.49 119.702 314.672 128.661C319.828 137.541 323.839 147.099 326.535 157.074Z" fill="#FFFCFC"/>
<path d="M364.948 157.49C365.599 160.876 363.399 164.158 360.012 164.809C356.627 165.46 353.346 163.26 352.695 159.874C349.947 146.045 345.155 132.763 338.54 120.431L338.371 120.106C331.781 107.891 323.383 96.589 313.395 86.6014L313.369 86.5752C303.304 76.5223 291.883 68.0456 279.552 61.4436C267.246 54.8547 253.938 50.0497 240.096 47.2892C236.71 46.6379 234.51 43.3438 235.161 39.9713C235.825 36.5857 239.106 34.385 242.479 35.0363C257.506 38.0182 271.96 43.2661 285.412 50.454C298.863 57.6681 311.273 66.8744 322.171 77.7602L322.197 77.7863C332.992 88.5943 342.121 100.874 349.309 114.182L349.504 114.534C356.731 127.971 361.953 142.437 364.948 157.49Z" fill="#FFFCFC"/>
<path d="M397.333 326.941C400.106 328.972 400.705 332.88 398.675 335.653C396.644 338.426 392.736 339.025 389.963 336.995L292.535 265.583L286.219 271.898L276.128 281.99C252.116 306.002 216.098 300.324 182.945 280.141C170.51 272.576 158.464 262.966 147.695 252.197C136.939 241.428 127.317 229.383 119.751 216.947C99.5414 183.781 93.7991 147.776 117.668 123.921L134.257 107.331L67.1429 15.7365L36.8411 45.8168L36.8541 45.8299L36.5935 46.0899C12.8029 69.8804 6.56541 101.432 18.7537 139.716C31.4103 179.471 63.6129 226.375 116.221 279.374L118.343 281.509L118.357 281.496C121.951 285.09 124.906 288.019 127.211 290.246C178.296 339.78 223.702 370.121 262.221 381.905C299.319 393.26 329.946 387.114 352.93 364.118L353.243 363.819L353.985 363.076L362.006 354.795C364.402 352.332 368.361 352.28 370.822 354.676C373.284 357.072 373.335 361.031 370.939 363.492L362.919 371.773L362.892 371.8L362.124 372.569L361.772 372.96C335.3 399.446 300.466 406.634 258.602 393.821C218.17 381.45 171.044 350.107 118.515 299.179C114.895 295.676 111.887 292.708 109.517 290.338L109.53 290.324L109.517 290.31L107.381 288.162C53.3529 233.732 20.1476 185.122 6.87895 143.479C-6.84631 100.364 0.446138 64.5548 27.7516 37.248L28.0123 36.988L28.0253 37.0011L28.0384 36.988L63.4842 1.80351C63.7057 1.58207 63.9402 1.38676 64.1877 1.20451C66.9613 -0.826969 70.8681 -0.227975 72.8989 2.54556L147.2 103.906C149.31 106.354 149.206 110.078 146.887 112.397L126.509 132.775C107.524 151.761 113.071 182.024 130.402 210.463C137.408 221.974 146.392 233.212 156.55 243.369C166.707 253.525 177.944 262.51 189.442 269.503C217.881 286.822 248.157 292.291 267.285 273.163L277.377 263.071L287.469 252.98L287.482 252.993C289.619 250.858 293.055 250.532 295.569 252.369L397.333 326.941Z" fill="#FFFCFC"/>
<path d="M370.17 354.117C372.943 356.147 373.542 360.055 371.511 362.828C369.481 365.602 365.573 366.202 362.8 364.17L337.355 345.537L311.912 326.889L286.467 308.242C283.694 306.212 283.095 302.305 285.126 299.53C287.157 296.757 291.064 296.158 293.838 298.189L319.281 316.836L344.725 335.483L370.17 354.117Z" fill="#FFFCFC"/>
<path d="M35.6816 37.0658C33.6501 34.2922 34.2491 30.3854 37.0233 28.3545C39.7968 26.3231 43.7037 26.922 45.7345 29.6956L64.368 55.1401L83.0152 80.5715L101.662 106.016C103.693 108.79 103.094 112.696 100.321 114.727C97.5472 116.758 93.6403 116.16 91.6095 113.386L72.9754 87.9286L54.3282 62.4972L35.6816 37.0658Z" fill="#FFFCFC"/>
</g>
<defs>
<clipPath id="clip0">
<rect width="400" height="400" fill="white"/>
</clipPath>
</defs>
</svg>
