<svg width="512" height="512" viewBox="0 0 512 512" fill="none" xmlns="http://www.w3.org/2000/svg">
<g clip-path="url(#clip0)">
<path d="M510.915 168.428L462.797 73.604V35.998C462.797 30.476 458.321 25.998 452.797 25.998H59.198C53.676 25.998 49.198 30.476 49.198 35.998V73.609L1.082 168.428C0.371 169.83 0 171.381 0 172.953V197.554C0 226.786 21.304 251.122 49.198 255.891V465.996H38.965C33.442 465.996 28.965 470.474 28.965 475.996C28.965 481.518 33.442 485.996 38.965 485.996H59.121C59.146 485.996 59.172 486 59.198 486H332.798H412.799H452.799H473.032C478.554 486 483.032 481.522 483.032 476C483.032 470.478 478.554 466 473.032 466H462.799V255.891C490.694 251.122 511.998 226.787 511.998 197.554V172.953C511.998 171.381 511.627 169.83 510.915 168.428ZM69.198 45.998H442.797V66.001H374.08H295.359H216.64H137.918H69.198V45.998V45.998ZM315.147 171.943L306.426 86.001H366.672L393.599 174.441V197.554C393.599 219.168 376.014 236.752 354.399 236.752C332.784 236.752 315.198 219.168 315.198 197.554V172.953C315.198 172.616 315.181 172.279 315.147 171.943ZM295.198 173.459V197.554H295.197C295.197 219.168 277.613 236.752 256 236.752C234.385 236.752 216.799 219.168 216.799 197.554V173.459L225.677 86.001H286.323L295.198 173.459ZM205.575 86.002L196.851 171.944C196.816 172.279 196.799 172.616 196.799 172.953V197.554C196.799 219.168 179.215 236.752 157.6 236.752C135.985 236.752 118.401 219.168 118.401 197.554V174.442L145.329 86.002H205.575V86.002ZM20 197.554V175.345L65.338 86.001H124.421L98.834 170.04C98.547 170.984 98.4 171.966 98.4 172.953V197.554C98.4 219.168 80.814 236.752 59.198 236.752C37.584 236.752 20 219.168 20 197.554ZM402.799 466H342.798V435.998V395.998H352.799C358.322 395.998 362.799 391.521 362.799 385.998C362.799 380.476 358.322 375.998 352.799 375.998H342.798V306H402.799V466ZM442.797 466H422.797V296C422.797 290.478 418.32 286 412.797 286H332.796H99.199C93.675 286 89.199 290.478 89.199 296V435.998C89.199 441.521 93.675 445.998 99.199 445.998H322.798V466H69.198V255.891C85.492 253.106 99.537 243.653 108.4 230.436C119.032 246.291 137.115 256.752 157.599 256.752C178.083 256.752 196.165 246.291 206.798 230.436C217.431 246.291 235.515 256.752 255.999 256.752C276.481 256.752 294.565 246.292 305.196 230.436C315.829 246.292 333.913 256.752 354.397 256.752C374.881 256.752 392.965 246.291 403.597 230.436C412.459 243.653 426.504 253.106 442.797 255.891V466ZM206.73 306H241.57L222.555 325.012C218.65 328.916 218.65 335.248 222.554 339.154C224.507 341.107 227.066 342.084 229.626 342.084C232.185 342.084 234.743 341.107 236.696 339.155L269.855 306H322.797V425.998H109.199V403.531L206.73 306ZM109.199 375.246V306H178.445L109.199 375.246ZM491.998 197.554C491.998 219.168 474.413 236.752 452.799 236.752C431.184 236.752 413.599 219.168 413.599 197.554V172.953C413.599 171.966 413.453 170.984 413.165 170.04L387.578 86.001H446.66L491.998 175.345V197.554Z" fill="#0C65BC"/>
<path d="M209.143 362.566C211.693 362.566 214.243 361.597 216.194 359.658L216.361 359.492C220.278 355.599 220.296 349.267 216.403 345.35C212.508 341.433 206.176 341.414 202.26 345.309L202.093 345.475C198.176 349.368 198.159 355.701 202.051 359.617C204.006 361.583 206.574 362.566 209.143 362.566Z" fill="#0C65BC"/>
<path d="M10.236 465.996H10C4.477 465.996 0 470.474 0 475.996C0 481.518 4.477 485.996 10 485.996H10.236C15.758 485.996 20.236 481.518 20.236 475.996C20.236 470.474 15.759 465.996 10.236 465.996Z" fill="#0C65BC"/>
<path d="M501.998 466H501.762C496.239 466 491.762 470.478 491.762 476C491.762 481.522 496.239 486 501.762 486H501.998C507.521 486 511.998 481.522 511.998 476C511.998 470.478 507.521 466 501.998 466Z" fill="#0C65BC"/>
</g>
<defs>
<clipPath id="clip0">
<rect width="511.998" height="511.998" fill="white"/>
</clipPath>
</defs>
</svg>
