<svg width="512" height="512" viewBox="0 0 512 512" fill="none" xmlns="http://www.w3.org/2000/svg">
<path d="M114.579 89.072C113.011 90.58 111.431 92.146 109.879 93.726C108.765 94.8627 108.148 96.3954 108.164 97.9868C108.181 99.5782 108.828 101.098 109.965 102.212C111.102 103.326 112.634 103.943 114.226 103.926C115.817 103.91 117.337 103.263 118.451 102.126C119.916 100.626 121.411 99.149 122.893 97.726C123.472 97.1826 123.938 96.5296 124.263 95.8049C124.588 95.0801 124.766 94.2981 124.787 93.504C124.807 92.71 124.67 91.9198 124.382 91.1792C124.095 90.4387 123.664 89.7626 123.113 89.1901C122.562 88.6176 121.904 88.1602 121.175 87.8443C120.446 87.5284 119.662 87.3604 118.867 87.35C118.073 87.3395 117.285 87.4869 116.548 87.7836C115.811 88.0802 115.14 88.5202 114.575 89.078L114.579 89.072Z" fill="#0C65BC"/>
<path d="M105.54 107.144C104.311 106.134 102.731 105.653 101.147 105.808C99.5637 105.963 98.1065 106.74 97.096 107.969C86.7814 120.504 77.9221 134.168 70.688 148.7C69.98 150.125 69.8671 151.773 70.3742 153.281C70.8813 154.79 71.9669 156.035 73.392 156.743C74.8171 157.451 76.4652 157.564 77.9735 157.057C79.4819 156.55 80.727 155.464 81.435 154.039C88.2652 140.323 96.6286 127.426 106.365 115.594C106.866 114.985 107.242 114.284 107.472 113.529C107.702 112.775 107.781 111.983 107.704 111.198C107.627 110.413 107.397 109.651 107.025 108.956C106.654 108.26 106.149 107.644 105.54 107.144V107.144Z" fill="#0C65BC"/>
<path d="M416.447 68.139C373.653 27.464 316.741 5.047 256.178 5C256.118 5 256.06 5 256.001 5C255.942 5 255.882 5 255.822 5C195.26 5.048 138.349 27.465 95.555 68.139C52.635 108.933 29 163.241 29 221.061C29.0006 222.512 29.5271 223.914 30.4818 225.006C31.4365 226.099 32.7548 226.809 34.1926 227.004C35.6304 227.199 37.0902 226.867 38.3018 226.068C39.5133 225.27 40.3944 224.059 40.782 222.661C42.373 216.934 48.037 200.553 55.117 193.296C64.7518 184.588 77.2819 179.775 90.269 179.796H90.3C103.278 179.679 115.816 184.501 125.37 193.286C134.614 202.66 139.499 214.075 139.499 226.307C139.499 227.898 140.131 229.424 141.256 230.55C142.382 231.675 143.908 232.307 145.499 232.307C147.09 232.307 148.616 231.675 149.742 230.55C150.867 229.424 151.499 227.898 151.499 226.307C151.499 214.084 156.378 202.675 165.612 193.307C175.246 184.596 187.777 179.781 200.766 179.8H200.799C213.779 179.675 226.319 184.498 235.869 193.29C245.084 202.634 249.969 214.006 249.995 226.19V380.7H239.832C238.241 380.7 236.715 381.332 235.589 382.457C234.464 383.583 233.832 385.109 233.832 386.7V448.062C233.832 456.254 226.573 462.671 217.308 462.671C210.748 462.671 205.008 459.481 202.318 454.347C200.45 450.676 197.609 447.589 194.106 445.423C190.603 443.256 186.573 442.094 182.454 442.062C178.662 442.064 174.934 443.035 171.623 444.885C168.313 446.735 165.531 449.401 163.543 452.629C161.554 455.858 160.425 459.542 160.262 463.33C160.099 467.119 160.908 470.886 162.613 474.273C172.751 494.461 193.709 507 217.308 507C251.43 507 278.158 481.113 278.158 448.065V386.7C278.158 385.109 277.526 383.583 276.401 382.457C275.275 381.332 273.749 380.7 272.158 380.7H262V226.367C262 226.348 262 226.329 262 226.309C262 214.086 266.879 202.678 276.112 193.309C285.746 184.596 298.278 179.781 311.268 179.8H311.299C324.278 179.682 336.815 184.505 346.369 193.29C355.613 202.666 360.499 214.082 360.499 226.311C360.499 227.902 361.131 229.428 362.256 230.554C363.382 231.679 364.908 232.311 366.499 232.311C368.09 232.311 369.616 231.679 370.742 230.554C371.867 229.428 372.499 227.902 372.499 226.311C372.499 214.087 377.378 202.678 386.611 193.311C396.246 184.597 408.778 179.781 421.769 179.8H421.8C434.782 179.658 447.328 184.483 456.87 193.286C463.959 200.534 469.628 216.934 471.219 222.662C471.606 224.061 472.487 225.273 473.699 226.072C474.91 226.871 476.371 227.204 477.809 227.008C479.248 226.813 480.567 226.103 481.521 225.01C482.476 223.916 483.002 222.514 483.002 221.062C483 163.241 459.365 108.933 416.447 68.139V68.139ZM244.3 184.747C244.236 184.683 244.173 184.621 244.107 184.561C232.322 173.649 216.812 167.653 200.752 167.8H200.71C184.701 167.788 169.264 173.755 157.424 184.531C157.346 184.602 157.271 184.674 157.196 184.749C155.666 186.293 154.244 187.889 152.906 189.524C154.076 174.525 156.183 159.614 159.213 144.878C159.383 144.103 159.397 143.302 159.254 142.522C159.112 141.742 158.816 140.998 158.384 140.333C157.952 139.668 157.392 139.095 156.737 138.648C156.082 138.201 155.344 137.888 154.568 137.728C153.791 137.568 152.99 137.564 152.211 137.716C151.433 137.868 150.692 138.173 150.033 138.614C149.373 139.054 148.807 139.621 148.369 140.281C147.93 140.942 147.626 141.683 147.476 142.462C144.06 159.079 141.773 175.909 140.632 192.835C138.574 189.961 136.289 187.257 133.799 184.749C133.735 184.685 133.672 184.623 133.605 184.563C121.958 173.776 106.664 167.788 90.789 167.8H90.251H90.212C74.2015 167.787 58.7633 173.754 46.923 184.531C46.845 184.602 46.769 184.675 46.694 184.75C45.6498 185.813 44.6707 186.938 43.762 188.119C50.886 146.148 71.596 107.469 103.822 76.838C133.569 48.6409 170.695 29.4464 210.9 21.477C196.666 32.439 183.68 48.688 172.644 69.7C168.948 76.7643 165.615 84.0124 162.657 91.416C162.29 92.3266 162.152 93.3133 162.255 94.2897C162.358 95.2661 162.699 96.2023 163.248 97.0161C163.797 97.83 164.538 98.4966 165.405 98.9576C166.271 99.4186 167.238 99.6597 168.22 99.66C169.409 99.6632 170.573 99.3108 171.561 98.6482C172.548 97.9855 173.316 97.0428 173.764 95.941C176.578 88.8974 179.749 82.0015 183.264 75.28C201.545 40.48 225.05 20.17 249.998 17.356L250 191.3C248.244 188.994 246.34 186.805 244.3 184.747V184.747ZM266.158 392.7V448.062C266.158 474.381 244.7 494.997 217.308 494.997C198.274 494.997 181.426 484.997 173.336 468.887C172.551 467.329 172.177 465.596 172.251 463.853C172.324 462.11 172.843 460.415 173.757 458.929C174.671 457.443 175.95 456.216 177.472 455.364C178.994 454.512 180.709 454.064 182.454 454.062C184.38 454.098 186.26 454.663 187.888 455.693C189.516 456.724 190.83 458.182 191.686 459.908C196.449 469.014 206.268 474.671 217.308 474.671C233.308 474.671 245.832 462.983 245.832 448.062V392.7H266.158ZM354.8 184.747C354.737 184.683 354.673 184.621 354.607 184.561C342.826 173.643 327.314 167.646 311.252 167.8H311.213C295.202 167.787 279.764 173.754 267.924 184.531C267.846 184.602 267.771 184.674 267.696 184.749C265.657 186.807 263.755 188.995 262 191.3V17.348C286.947 20.163 310.451 40.471 328.731 75.272C345.18 106.583 355.66 146.34 359.096 189.527C357.758 187.894 356.333 186.294 354.8 184.747V184.747ZM465.305 184.747C465.241 184.683 465.178 184.621 465.111 184.56C453.319 173.658 437.812 167.664 421.753 167.8H421.714C405.703 167.787 390.265 173.754 378.425 184.531C378.348 184.601 378.271 184.674 378.197 184.749C375.709 187.255 373.426 189.956 371.369 192.827C368.169 146.397 357.083 103.442 339.357 69.698C328.322 48.69 315.336 32.44 301.098 21.478C341.304 29.4461 378.431 48.6396 408.18 76.836C440.405 107.467 461.114 146.145 468.237 188.116C467.329 186.935 466.349 185.81 465.305 184.747V184.747Z" fill="#0C65BC"/>
</svg>
